<?xml version="1.0" encoding="utf-8"?>
<!-- Generator: Adobe Illustrator 18.0.0, SVG Export Plug-In . SVG Version: 6.00 Build 0)  -->
<!DOCTYPE svg PUBLIC "-//W3C//DTD SVG 1.1//EN" "http://www.w3.org/Graphics/SVG/1.1/DTD/svg11.dtd">
<svg version="1.1" id="Layer_1" xmlns="http://www.w3.org/2000/svg" xmlns:xlink="http://www.w3.org/1999/xlink" x="0px" y="0px"
	 viewBox="0 0 89 100" enable-background="new 0 0 89 100" xml:space="preserve">
<path fill="#FFFFFF" d="M84.9,25.9c0.2-7.2-0.3-19.8-4.8-25C77.6-2,71.6,2.8,67.8,6.5C61.4,3.4,53.5,1.9,44,1.9
	c-9.5,0-17.4,1.5-23.8,4.6C16.4,2.8,10.4-2,7.9,0.9c-4.6,5.2-5,17.8-4.8,25C1.1,31.5,0,38.1,0,45.6c0,15.8,4.5,27.5,13.5,34.9
	c6,4.9,13.9,7.8,23.9,8.6c-0.5,0.2-0.9,0.5-1.4,0.7l0,0l0,0c-0.7,0.4-1.5,0.7-2.2,1.1l-3.6,1.8l-2.1,1c-0.6,0.3-1.2,0.6-1.8,0.9l0,0
	c-1.4,0.7-2.9,1.5-4.5,2.4l-0.5,0.3c-0.2,0.1-0.3,0.3-0.3,0.5c-0.1,0.4,0.2,0.8,0.6,0.8c0.6,0.1,1.2,0.2,1.8,0.3h0
	c1.4,0.2,2.8,0.5,4.3,0.6l1.5,0.2c0.5,0.1,1,0.1,1.5,0.1l3.1,0.2c4.1,0.1,8.2-0.2,12.3-0.8c4.1-0.6,8.1-1.8,12-3.3
	c3.8-1.6,7.5-3.7,10.8-6.2c6.6-5.1,11.8-12,14.9-19.7c1.1-2.8,2-5.7,2.6-8.6c1.2-4.7,1.8-10,1.8-15.8C88,38.1,87,31.5,84.9,25.9
	L84.9,25.9z M44,73.5c-16.9,0-28.1-4.7-28.1-27.9c0-10.9,2.5-18.3,7.7-22.6c4.4-3.6,11-5.3,20.4-5.3c9.4,0,16.1,1.8,20.4,5.3
	c5.2,4.2,7.7,11.6,7.7,22.6C72.1,68.8,60.9,73.5,44,73.5z M35,39.7c0-2.1,1.4-3.8,3.3-4.4c-1-1-2.4-1.6-4-1.6
	c-3.2,0-5.9,2.6-5.9,5.8v11.7c0,3.2,2.6,5.8,5.9,5.8s5.9-2.6,5.9-5.8v-6.9c-0.2,0-0.3,0-0.5,0C37.1,44.3,35,42.2,35,39.7L35,39.7z
	 M57.2,34.9c-1.8,0.6-3.1,2.4-3.1,4.4v0c0,2.6,2.1,4.6,4.7,4.6c0.2,0,0.5,0,0.7-0.1v7.3c0,3.2-2.6,5.8-5.9,5.8
	c-3.2,0-5.9-2.6-5.9-5.8V39.5c0-3.2,2.6-5.8,5.9-5.8C55,33.7,56.2,34.1,57.2,34.9z"/>
</svg>
