
<svg xmlns="http://www.w3.org/2000/svg" version="1.1" xmlns:xlink="http://www.w3.org/1999/xlink" preserveAspectRatio="none" x="0px" y="0px" width="423px" height="73px" viewBox="0 0 423 73">
<defs>
<linearGradient id="Gradient_1" gradientUnits="userSpaceOnUse" x1="382.27500000000003" y1="39.4" x2="419.925" y2="39.4" spreadMethod="pad">
<stop  offset="0%" stop-color="#CAE671"/>

<stop  offset="100%" stop-color="#B79B57"/>
</linearGradient>

<linearGradient id="Gradient_2" gradientUnits="userSpaceOnUse" x1="382.27500000000003" y1="45" x2="419.925" y2="45" spreadMethod="pad">
<stop  offset="0%" stop-color="#CAE671"/>

<stop  offset="100%" stop-color="#B79B57"/>
</linearGradient>

<linearGradient id="Gradient_3" gradientUnits="userSpaceOnUse" x1="382.35" y1="48.95" x2="419.85" y2="48.95" spreadMethod="pad">
<stop  offset="0%" stop-color="#CAE671"/>

<stop  offset="100%" stop-color="#B79B57"/>
</linearGradient>

<linearGradient id="Gradient_4" gradientUnits="userSpaceOnUse" x1="366.95000000000005" y1="13.8" x2="381.25" y2="13.8" spreadMethod="pad">
<stop  offset="0%" stop-color="#CAE671"/>

<stop  offset="100%" stop-color="#B79B57"/>
</linearGradient>

<linearGradient id="Gradient_5" gradientUnits="userSpaceOnUse" x1="366.2" y1="45" x2="381.8" y2="45" spreadMethod="pad">
<stop  offset="0%" stop-color="#CAE671"/>

<stop  offset="100%" stop-color="#B79B57"/>
</linearGradient>

<linearGradient id="Gradient_6" gradientUnits="userSpaceOnUse" x1="299.325" y1="38.55" x2="344.27500000000003" y2="38.55" spreadMethod="pad">
<stop  offset="0%" stop-color="#CAE671"/>

<stop  offset="100%" stop-color="#B79B57"/>
</linearGradient>

<linearGradient id="Gradient_7" gradientUnits="userSpaceOnUse" x1="345.85" y1="60.05" x2="364.85" y2="60.05" spreadMethod="pad">
<stop  offset="0%" stop-color="#CAE671"/>

<stop  offset="100%" stop-color="#B79B57"/>
</linearGradient>

<linearGradient id="Gradient_8" gradientUnits="userSpaceOnUse" x1="254.90000000000003" y1="38.55" x2="297.8" y2="38.55" spreadMethod="pad">
<stop  offset="0%" stop-color="#CAE671"/>

<stop  offset="100%" stop-color="#B79B57"/>
</linearGradient>

<linearGradient id="Gradient_9" gradientUnits="userSpaceOnUse" x1="180.45000000000002" y1="38.6" x2="219.65" y2="38.6" spreadMethod="pad">
<stop  offset="0%" stop-color="#CAE671"/>

<stop  offset="100%" stop-color="#B79B57"/>
</linearGradient>

<linearGradient id="Gradient_10" gradientUnits="userSpaceOnUse" x1="145.825" y1="26.8" x2="164.875" y2="26.8" spreadMethod="pad">
<stop  offset="0%" stop-color="#CAE671"/>

<stop  offset="100%" stop-color="#B79B57"/>
</linearGradient>

<linearGradient id="Gradient_11" gradientUnits="userSpaceOnUse" x1="136.1" y1="38.55" x2="178.9" y2="38.55" spreadMethod="pad">
<stop  offset="0%" stop-color="#CAE671"/>

<stop  offset="100%" stop-color="#B79B57"/>
</linearGradient>

<linearGradient id="Gradient_12" gradientUnits="userSpaceOnUse" x1="136.07500000000002" y1="34.3" x2="178.525" y2="34.3" spreadMethod="pad">
<stop  offset="0%" stop-color="#CAE671"/>

<stop  offset="100%" stop-color="#B79B57"/>
</linearGradient>

<linearGradient id="Gradient_13" gradientUnits="userSpaceOnUse" x1="136.1" y1="52.9" x2="178.9" y2="52.9" spreadMethod="pad">
<stop  offset="0%" stop-color="#CAE671"/>

<stop  offset="100%" stop-color="#B79B57"/>
</linearGradient>

<linearGradient id="Gradient_14" gradientUnits="userSpaceOnUse" x1="88.175" y1="38.1" x2="134.525" y2="38.1" spreadMethod="pad">
<stop  offset="0%" stop-color="#CAE671"/>

<stop  offset="100%" stop-color="#B79B57"/>
</linearGradient>

<linearGradient id="Gradient_15" gradientUnits="userSpaceOnUse" x1="91.275" y1="26.05" x2="134.125" y2="26.05" spreadMethod="pad">
<stop  offset="0%" stop-color="#CAE671"/>

<stop  offset="100%" stop-color="#B79B57"/>
</linearGradient>

<linearGradient id="Gradient_16" gradientUnits="userSpaceOnUse" x1="44.074999999999996" y1="38.15" x2="90.025" y2="38.15" spreadMethod="pad">
<stop  offset="0%" stop-color="#CAE671"/>

<stop  offset="100%" stop-color="#B79B57"/>
</linearGradient>

<linearGradient id="Gradient_17" gradientUnits="userSpaceOnUse" x1="88.175" y1="43.8" x2="134.525" y2="43.8" spreadMethod="pad">
<stop  offset="0%" stop-color="#CAE671"/>

<stop  offset="100%" stop-color="#B79B57"/>
</linearGradient>

<linearGradient id="Gradient_18" gradientUnits="userSpaceOnUse" x1="323.3" y1="21.4" x2="343.7" y2="21.4" spreadMethod="pad">
<stop  offset="0%" stop-color="#CAE671"/>

<stop  offset="100%" stop-color="#B79B57"/>
</linearGradient>

<linearGradient id="Gradient_19" gradientUnits="userSpaceOnUse" x1="1044.5249999999999" y1="661.3" x2="1089.075" y2="661.3" spreadMethod="pad">
<stop  offset="0%" stop-color="#CAE671"/>

<stop  offset="100%" stop-color="#B79B57"/>
</linearGradient>

<linearGradient id="Gradient_20" gradientUnits="userSpaceOnUse" x1="1072.75" y1="656.45" x2="1078.75" y2="656.45" spreadMethod="pad">
<stop  offset="0%" stop-color="#CAE671"/>

<stop  offset="100%" stop-color="#B79B57"/>
</linearGradient>

<linearGradient id="Gradient_21" gradientUnits="userSpaceOnUse" x1="1055.1" y1="656.45" x2="1061.1" y2="656.45" spreadMethod="pad">
<stop  offset="0%" stop-color="#CAE671"/>

<stop  offset="100%" stop-color="#B79B57"/>
</linearGradient>

<g id="Layer1_0_FILL">
<path fill="#33FF99" stroke="none" d="
M 10.5 47.45
Q 9.9 45.45 9.65 44.05 9.4 42.75 9.1 42.65 8.7 42.65 7.75 43.75 6.8 44.85 5.95 46.8 5.1 48.85 5 51.75 5.05 55.7 6.65 58.65 8.3 61.65 11.05 63.55 13.75 65.55 17.15 66.5 20.55 67.45 24.2 67.45 29.45 67.45 33.2 65.85 37 64.25 39.35 61.7 41.7 59.1 42.8 56.1 43.9 53.05 43.9 50.1 43.95 46.9 42.6 43.7 41.25 40.45 37.6 37.55 34.2 34.85 28 32.65 19.35 33.65 10.75 35.25 12.2 36.65 14.4 38 17.65 40.1 23.1 41.8 25.15 42.35 27.4 43.35 29.7 44.3 31.35 45.9 32.95 47.5 33.05 49.9 33 52 31.7 53.4 30.4 54.85 28.25 55.55 26.1 56.3 23.5 56.3 19.2 56.2 16.55 54.85 13.95 53.5 12.55 51.5 11.15 49.45 10.5 47.45
M 70.9 31.2
Q 66.1 30.95 61.3 30.9 60.9 33.4 60.45 36.6 59.75 42.2 59.7 49.7 59.7 55.5 60.05 58.9 60.35 62.35 60.8 64 61.3 65.65 61.9 66.15 62.45 66.65 63 66.6 63.55 66.5 63.95 66.45
L 70.95 66.45
Q 71.45 66.5 72.2 66.5 72.95 66.5 73.6 66.25 74.2 66 74.25 65.3 74.15 64.7 73.3 61.65 72.4 58.55 71.5 52.8 70.65 47 70.55 38.45 70.55 36.05 70.75 32.9 70.8 32.05 70.9 31.2
M 121.95 47
Q 122.75 47.95 122.8 49.45 122.75 52.3 121.95 54.95 121.2 57.55 120.2 59.7 119.2 61.85 118.4 63.4 117.65 64.9 117.6 65.65 117.65 66.1 118.15 66.3 118.6 66.45 119.25 66.45 119.85 66.45 120.15 66.45
L 127.7 66.45
Q 128.25 66.5 128.95 66.5 129.6 66.5 130.25 65.95 130.9 65.35 131.4 63.75 131.95 62.15 132.25 58.95 132.55 55.7 132.55 50.4 132.55 46.15 132.15 42.45 124.65 40.3 117.1 37.65 114.7 37.1 112.35 36.6 111.9 36.65 111.5 36.7 108.65 37.15 106.55 37.55 104.45 37.95 103.8 38 103.2 38 102.85 37.65 102.55 37.35 102.55 36.7 102.55 35.8 102.8 34.75 98.05 33.95 93.3 33.3 92.75 34.75 92.3 36.3 90.25 43.1 90.2 51.7 90.2 56.1 90.55 59.4 90.95 62.7 91.9 64.55 92.85 66.4 94.55 66.45
L 104.15 66.45
Q 104.8 66.45 105.1 66.35 105.4 66.3 105.4 66 105.35 65.45 104.3 63.6 103.25 61.75 102.15 59.2 101.1 56.65 101.05 54 101.1 51.15 102.65 49.4 104.25 47.65 106.7 46.75 109.15 45.85 111.8 45.6 114.55 45.25 116.9 45.3 118.4 45.3 119.75 45.7 121.05 46.1 121.95 47
M 166.05 50.8
Q 166 53.35 164.6 54.95 163.2 56.5 161 57.2 158.75 57.9 156.3 57.9 153.55 57.95 151.8 57.15 150 56.4 149.15 53.9 148.25 51.45 148.25 46.45 148.25 46.35 148.25 46.3 143.2 45.3 138.1 44 138.1 50.55 138.3 54.75 138.55 59.4 138.9 61.85 139.25 64.3 139.75 65.25 140.2 66.25 140.75 66.4 141.25 66.5 141.8 66.45
L 161.95 66.45
Q 167.4 66.4 170.7 64.55 174 62.7 175.45 59.8 176.9 56.85 176.9 53.55 176.85 51.65 176.55 50 171.2 49.65 165.85 49.05 166.05 49.95 166.05 50.8
M 242 42.65
Q 238.05 43.75 234.1 44.75 234.15 46.1 234.2 48.5 234.3 53.8 234.4 56.2 235 66.5 237.9 68.75
L 237.95 68.8
Q 238.05 68.7 238.15 68.6 240.9 66.1 241.45 56.2 241.6 53.8 241.7 48.5 241.75 44.4 241.9 43.3 241.95 42.95 242 42.65
M 194.05 54.75
Q 193.7 52.3 193.65 50.25 188.1 50.4 182.55 50.25 182.55 52.75 182.65 54.75 182.9 59.4 183.25 61.85 183.6 64.3 184.1 65.25 184.6 66.25 185.1 66.4 185.6 66.5 186.15 66.45
L 194 66.45
Q 194.35 66.45 194.9 66.5 195.4 66.5 195.8 66.35 196.25 66.2 196.25 65.85 196.25 65.55 195.85 63.85 195.5 62.2 194.95 59.8 194.45 57.35 194.05 54.75
M 294.5 43.7
Q 293.15 40.45 289.5 37.55 285.8 34.65 278.85 32.25 278.45 32.15 278.05 32 270.65 33.5 263.2 35.75 264.5 36.9 266.3 38 269.55 40.1 275 41.8 277.05 42.35 279.3 43.35 281.6 44.3 283.25 45.9 284.85 47.5 284.95 49.9 284.9 52 283.6 53.4 282.3 54.85 280.15 55.55 278 56.3 275.4 56.3 271.1 56.2 268.45 54.85 265.85 53.5 264.45 51.5 263.05 49.45 262.4 47.45 261.8 45.45 261.55 44.05 261.3 42.75 261 42.65 260.6 42.65 259.65 43.75 258.7 44.85 257.85 46.8 257 48.85 256.9 51.75 256.95 55.7 258.55 58.65 260.2 61.65 262.95 63.55 265.65 65.55 269.05 66.5 272.45 67.45 276.1 67.45 281.35 67.45 285.1 65.85 288.9 64.25 291.25 61.7 293.6 59.1 294.7 56.1 295.8 53.05 295.8 50.1 295.85 46.9 294.5 43.7
M 362.85 60.05
Q 362.75 56.9 360.65 54.85 358.45 52.8 355.2 52.7 353.15 52.75 351.5 53.7 349.85 54.7 348.85 56.35 347.85 58 347.85 60 347.9 63.2 350 65.25 352.1 67.35 355.25 67.45 357.4 67.45 359.1 66.5 360.8 65.5 361.8 63.85 362.85 62.2 362.85 60.05
M 341.95 35.3
Q 341.85 33.7 341.7 32.15 336 30.85 330.25 30.05 329.45 30.4 328.25 30.35 326.9 30.3 325.3 30.25 321.9 30.3 319.95 30.6 318.05 30.9 317.05 31.3 316.05 31.65 315.4 31.95 314.8 32.25 314.05 32.25 313.3 32.25 312.9 31.25 312.45 30.3 312.45 29 312.45 28.8 312.45 28.65 307.3 28.55 302.15 28.85 301.95 31.15 301.8 33.4 301.55 37.15 301.45 40.1 301.35 42.95 301.35 44.25 301.35 45.2 301.35 47.65 301.35 50.15 301.45 53.3 301.55 56.45 301.75 59.5 301.95 62.45 302.3 64.4 302.65 66.4 303.2 66.45
L 313.1 66.45
Q 313.35 66.45 313.85 66.5 314.35 66.5 314.8 66.4 315.2 66.2 315.2 65.75 315.2 65.55 315.15 65.25 315.05 65 314.95 64.8 313.55 61.4 312.85 57.7 312.2 53.95 312.2 50.3 312.25 46.45 314.3 43.95 316.4 41.55 319.55 40.4 322.75 39.3 326.2 39.3 329.55 39.25 331.05 40.65 332.55 42 332.5 45.4 332.5 50.35 331.25 55.15 330.05 59.85 328.25 64.5 328.15 64.7 328.05 64.95 328.05 65.15 328.05 65.45 328.05 65.95 328.5 66.2 329 66.4 329.55 66.4 330.15 66.45 330.5 66.45
L 340.15 66.45
Q 340.8 66.4 341.2 64.45 341.6 62.5 341.85 59.55 342.05 56.6 342.15 53.45 342.25 50.3 342.25 47.8 342.3 45.3 342.3 44.25 342.3 39.9 341.95 35.3
M 377.4 44.8
Q 372.85 43.3 368.2 41.4 368.2 42.75 368.2 44.25 368.2 51.3 368.25 55.6 368.3 59.95 368.45 62.25 368.65 64.55 369.05 65.45 369.45 66.3 370.1 66.4 370.75 66.5 371.7 66.45
L 376.25 66.45
Q 377.05 66.5 377.85 66.5 378.7 66.5 379.25 66.1 379.8 65.75 379.8 64.7 379.75 64.4 379.15 60.95 378.5 57.55 377.9 51.45 377.6 48.4 377.4 44.8
M 417.85 48.05
Q 413.4 48.8 408.95 49.1 408.55 50.5 407.95 51.8 407 53.75 405.3 55 403.65 56.25 401.1 56.3 398.6 56.25 396.95 55 395.25 53.75 394.3 51.8 393.55 50.2 393.15 48.45 388.8 47.8 384.35 46.75 384.6 51.5 385.85 55.1 387.35 59.4 389.85 62.1 392.3 64.85 395.25 66.15 398.2 67.45 401.1 67.45 404.05 67.45 407 66.15 409.95 64.85 412.4 62.1 414.9 59.4 416.4 55.1 417.5 52 417.85 48.05 Z"/>

<path fill="#34AAC8" stroke="none" d="
M 20.75 19.3
Q 22.55 18.7 24.25 18.7 26.85 18.75 28.7 19.65 30.55 20.55 31.85 21.75 33.15 22.9 34 23.8 34.9 24.7 35.5 24.75 36.25 24.7 37.15 23.75 38.05 22.85 38.9 21.45 39.75 20.1 40.3 18.8 40.85 17.5 40.9 16.8 40.85 15.75 38.7 14.05 36.6 12.45 32.85 11.1 29.15 9.75 24.25 9.7 19.15 9.75 15.8 11.25 12.4 12.8 10.4 15.2 8.45 17.55 7.65 20.15 6.8 22.7 6.8 24.9 6.8 27.05 7.3 29.3 7.85 31.55 9.45 33.75 10 34.5 10.75 35.25 19.35 33.65 28 32.65 27.5 32.45 26.95 32.25 25.5 31.8 23.75 31.15 22 30.55 20.35 29.6 18.75 28.7 17.7 27.4 16.65 26.1 16.6 24.3 16.65 22.35 17.85 21.1 19.05 19.85 20.75 19.3
M 81.05 22.25
Q 82.1 23.35 82.85 24.15 83.6 25 84.05 25.05 84.35 25 84.95 24 85.6 23 86.3 21.45 87.05 19.95 87.5 18.4 88.05 16.85 88.05 15.7 88 14.1 85.15 12.75 82.4 11.4 77.75 10.55 73.15 9.7 67.7 9.7 63.1 9.7 58.95 10.4 54.8 11 52.1 11.85 49.35 12.7 48.9 13.4 48.55 14.15 48.05 15.75 47.55 17.45 47.15 19.45 46.7 21.4 46.4 23.1 46.15 24.8 46.1 25.6 46.1 26.95 46.35 27.15 46.6 27.3 47.05 27.25 47.5 27.2 49.1 26.05 50.65 24.9 52.85 23.4 55 21.9 57.25 20.75 59.5 19.6 61.3 19.55 62.5 19.55 62.6 20.4 62.7 21.25 62.65 22.75 62.6 24 61.9 27.5 61.6 29 61.3 30.9 66.1 30.95 70.9 31.2 71.05 28.85 71.4 26.65 71.9 23.6 72.85 21.55 73.8 19.55 75.3 19.45 77.15 19.5 78.55 20.35 80 21.15 81.05 22.25
M 132.15 42.45
Q 131.7 37.95 130.75 34.2 129 27.3 126.35 22.6 123.65 17.9 120.9 15.05 118.05 12.2 115.95 10.95 113.8 9.65 113.05 9.7 112.1 9.7 109.55 11.35 107 12.95 103.75 16.25 100.45 19.5 97.4 24.55 95 28.4 93.3 33.3 98.05 33.95 102.8 34.75 103.1 33.6 103.7 32.25 104.85 29.6 106.55 27.1 108.3 24.6 110.1 22.85 111.9 21.2 113.3 21.15 114.3 21.2 115.6 22.6 116.8 23.95 118.05 26 119.25 28.1 120.05 30.25 120.8 32.45 120.85 34.05 120.85 35.4 120 35.85 119.2 36.3 117.4 36.25 114.85 36.3 112.35 36.6 114.7 37.1 117.1 37.65 124.65 40.3 132.15 42.45
M 173.75 20.5
Q 173.8 18.3 172.85 16.05 171.85 13.8 168.85 12.3 165.95 10.75 160.05 10.7
L 142.7 10.7
Q 142.35 10.65 141.8 10.85 141.25 11.05 140.6 12.4 139.95 13.75 139.4 17.1 138.8 20.4 138.45 26.55 138.1 32.75 138.1 42.6 138.1 43.3 138.1 44 143.2 45.3 148.25 46.3 148.35 44.8 149.05 44.15 149.8 43.5 151.15 42.8
L 155.5 40.45
Q 156.1 40.1 156.85 39.75 157.65 39.35 158.35 39.35 159.05 39.35 160.3 40.45 161.55 41.5 162.85 43.25 164.15 45 165.1 47 165.6 48.05 165.85 49.05 171.2 49.65 176.55 50 176.25 48.55 175.75 47.3 174.7 44.55 173.1 42.45 171.5 40.3 169.9 38.7 168.3 37.15 167.2 36.05 166.1 34.9 166.1 34.25 166.15 33.45 167.3 32.25 168.4 31 169.9 29.35 171.4 27.65 172.55 25.45 173.7 23.25 173.75 20.5
M 162.05 20.15
Q 162.85 21.05 162.9 22.65 162.85 24 162.1 25.45 161.3 26.9 160.25 28.15 159.1 29.35 158.15 30.05
L 153.25 33.55
Q 152.4 34.15 151.3 34.6 150.25 35 149.6 35.05 148.25 35 148.05 34 147.8 33 147.85 31.95 147.85 26.75 148.9 23.85 149.95 20.95 152.05 19.75 154.2 18.6 157.5 18.6 158.85 18.6 160.05 18.95 161.3 19.3 162.05 20.15
M 217.65 11.85
Q 217.65 11.2 217 10.95 216.4 10.7 215.65 10.7 214.9 10.7 214.45 10.7
L 187.05 10.7
Q 186.7 10.65 186.15 10.85 185.6 11.05 184.95 12.4 184.3 13.75 183.75 17.1 183.15 20.4 182.8 26.55 182.45 32.75 182.45 42.6 182.45 46.9 182.55 50.25 188.1 50.4 193.65 50.25 193.65 50.05 193.65 49.9 193.65 45.75 195.85 43.4 198.05 41.05 202.45 41 204.45 41.05 205.75 41.45 207.05 41.9 207.55 41.95 208 41.85 208.65 40.3 209.25 38.75 209.9 36.65 210.45 34.6 210.9 33 211.3 31.35 211.3 31.15 211.25 30.35 210.45 30.15 209.65 29.95 209.05 30 205.75 30.05 203.8 30.5 201.8 30.95 200.55 31.55 199.3 32.15 198.15 32.6 197.05 33.05 195.4 33.1 194 33.15 193.65 31.95 193.25 30.75 193.3 27.8 193.35 24.6 194.75 22.55 196.1 20.5 198.3 19.55 200.45 18.6 202.8 18.6 206.05 18.7 208 19.45 209.9 20.2 210.95 20.95 212 21.7 212.55 21.75 212.9 21.7 213.7 20.3 214.55 18.9 215.4 17 216.35 15.1 217 13.6 217.65 12.1 217.65 11.85
M 290.6 14.05
Q 288.5 12.45 284.75 11.1 281.05 9.75 276.15 9.7 271.05 9.75 267.7 11.25 264.3 12.8 262.3 15.2 260.35 17.55 259.55 20.15 258.7 22.7 258.7 24.9 258.7 27.05 259.2 29.3 259.75 31.55 261.35 33.75 262.1 34.75 263.2 35.75 270.65 33.5 278.05 32 276.9 31.6 275.65 31.15 273.9 30.55 272.25 29.6 270.65 28.7 269.6 27.4 268.55 26.1 268.5 24.3 268.55 22.35 269.75 21.1 270.95 19.85 272.65 19.3 274.45 18.7 276.15 18.7 278.75 18.75 280.6 19.65 282.45 20.55 283.75 21.75 285.05 22.9 285.9 23.8 286.8 24.7 287.4 24.75 288.15 24.7 289.05 23.75 289.95 22.85 290.8 21.45 291.65 20.1 292.2 18.8 292.75 17.5 292.8 16.8 292.75 15.75 290.6 14.05
M 317 11.3
Q 317 10.95 316.6 10.8 316.2 10.65 315.7 10.65 315.25 10.7 315 10.7
L 305.9 10.7
Q 305.1 10.75 304.45 12.85 303.8 14.9 303.3 18.35 302.8 21.7 302.4 25.65 302.25 27.25 302.15 28.85 307.3 28.55 312.45 28.65 312.55 26.1 313.2 23.35 313.85 20.4 314.75 17.8 315.65 15.2 316.3 13.45 316.95 11.7 317 11.3
M 325.8 10.8
Q 325.3 10.95 325.3 11.4 325.3 11.75 326.2 13.5 327.1 15.2 328.25 17.75 329.35 20.25 330.25 23 331.15 25.75 331.15 28.2 331.15 29.55 330.4 29.95 330.3 30 330.25 30.05 336 30.85 341.7 32.15 341.4 29.15 341 26.3 340.35 21.95 339.6 18.4 338.85 14.9 338.05 12.85 337.25 10.75 336.45 10.7
L 327.65 10.7
Q 327.45 10.7 326.9 10.65 326.3 10.65 325.8 10.8
M 370.25 23.55
Q 369.75 23.55 369.35 24.25 368.95 24.95 368.7 27.1 368.45 29.2 368.3 33.3 368.2 36.55 368.2 41.4 372.85 43.3 377.4 44.8 377.25 41.1 377.2 36.85 377.2 33.2 377.4 30.95 377.6 28.7 377.8 27.2 378 25.75 378 24.6 378 24.2 377.9 23.95 377.75 23.7 377.15 23.65 376.5 23.55 375.15 23.55
L 371.45 23.55
Q 370.8 23.5 370.25 23.55
M 374.1 9.3
Q 372 9.35 370.5 10.55 369 11.75 368.95 13.9 369 16.05 370.5 17.2 372 18.35 374.1 18.35 376.15 18.35 377.65 17.2 379.15 16.05 379.25 13.9 379.15 11.75 377.65 10.55 376.15 9.35 374.1 9.3
M 405.25 31.7
Q 406.9 32.9 407.85 34.9 408.8 36.8 409.25 39.05 409.65 41.25 409.65 43.25 409.65 45.3 409.25 47.55 409.15 48.35 408.95 49.1 413.4 48.8 417.85 48.05 417.95 46.55 417.95 44.95 417.95 40.85 416.95 36.9 415.95 32.95 413.9 29.7 411.85 26.45 408.7 24.55 405.45 22.6 401.1 22.55 396.75 22.6 393.55 24.55 390.4 26.45 388.35 29.7 386.3 32.95 385.3 36.9 384.3 40.85 384.3 44.95 384.3 45.85 384.35 46.75 388.8 47.8 393.15 48.45 393.05 48 393 47.55 392.6 45.3 392.6 43.25 392.6 41.25 393 39.05 393.45 36.8 394.4 34.9 395.35 32.9 397 31.7 398.65 30.5 401.1 30.45 403.6 30.5 405.25 31.7 Z"/>
</g>

<g id="Layer1_1_FILL">
<path fill="#34AAC8" stroke="none" d="
M 1061.9 637.1
Q 1060.2 638.2 1057.8 640.65 1056.2 642.25 1055.25 644.1 1054.4 643.15 1051.8 642.05 1048.75 640.7 1047.2 641.15 1046.9 641.2 1046.55 641.3 1048.15 646.85 1054 649.7 1054 650.15 1054.05 650.6 1054.05 650.85 1054.1 651.1 1054.1 651.4 1054.15 651.7
L 1054.15 651.75 1054.2 651.95
Q 1054.25 652.45 1054.35 652.9 1054.4 653.15 1054.45 653.4 1055.3 656.8 1057.8 659.45 1059.55 661.4 1061.75 662.4 1062.25 663.05 1062.45 664.5 1062.6 665.4 1062.85 667.7 1062.9328125 668.155859375 1063 669.1 1066.9505859375 668.1595703125 1070.9 667 1071.1154296875 665.2603515625 1071.2 664.5 1071.4 663.05 1071.9 662.4 1074.1 661.4 1075.9 659.45 1078.4 656.8 1079.2 653.4 1079.3 653.15 1079.3 652.9 1079.4 652.5 1079.5 652.05
L 1079.5 651.7
Q 1079.55 651.4 1079.6 651.1 1079.6 650.85 1079.6 650.6 1079.65 650.15 1079.65 649.7
L 1079.65 649.65
Q 1085.5 646.85 1087.1 641.3 1086.8 641.2 1086.45 641.15 1084.9 640.7 1081.85 642.05 1079.3 643.15 1078.4 644.1 1077.5 642.25 1075.9 640.65 1073.45 638.2 1071.75 637.1 1069.6 635.65 1067.65 635.45 1070.4 635.2 1072.45 633.35 1074.3 631.65 1074.7 629.45 1070.4 629.1 1066.95 631.5 1063.1 629.25 1059 629.45 1059.35 631.65 1061.2 633.35 1063.25 635.2 1066.05 635.45 1064.05 635.65 1061.9 637.1
M 1075.05 655.8
Q 1075.3 655.5 1075.75 655.5 1076.15 655.5 1076.45 655.8 1076.75 656.05 1076.75 656.45 1076.75 656.9 1076.45 657.2 1076.15 657.45 1075.75 657.45 1075.3 657.45 1075.05 657.2 1074.75 656.9 1074.75 656.45 1074.75 656.05 1075.05 655.8
M 1058.1 655.5
Q 1058.5 655.5 1058.8 655.8 1059.1 656.05 1059.1 656.45 1059.1 656.9 1058.8 657.2 1058.5 657.45 1058.1 657.45 1057.65 657.45 1057.4 657.2 1057.1 656.9 1057.1 656.45 1057.1 656.05 1057.4 655.8 1057.65 655.5 1058.1 655.5 Z"/>

<path fill="#C0B568" stroke="none" d="
M 1058.8 655.8
Q 1058.5 655.5 1058.1 655.5 1057.65 655.5 1057.4 655.8 1057.1 656.05 1057.1 656.45 1057.1 656.9 1057.4 657.2 1057.65 657.45 1058.1 657.45 1058.5 657.45 1058.8 657.2 1059.1 656.9 1059.1 656.45 1059.1 656.05 1058.8 655.8
M 1075.75 655.5
Q 1075.3 655.5 1075.05 655.8 1074.75 656.05 1074.75 656.45 1074.75 656.9 1075.05 657.2 1075.3 657.45 1075.75 657.45 1076.15 657.45 1076.45 657.2 1076.75 656.9 1076.75 656.45 1076.75 656.05 1076.45 655.8 1076.15 655.5 1075.75 655.5 Z"/>
</g>

<g id="Layer0_0_FILL">
<path fill="#33FF99" stroke="none" d="
M 10.5 47.45
Q 9.9 45.45 9.65 44.05 9.4 42.75 9.1 42.65 8.7 42.65 7.75 43.75 6.8 44.85 5.95 46.8 5.1 48.85 5 51.75 5.05 55.7 6.65 58.65 8.3 61.65 11.05 63.55 13.75 65.55 17.15 66.5 20.55 67.45 24.2 67.45 29.45 67.45 33.2 65.85 37 64.25 39.35 61.7 41.7 59.1 42.8 56.1 43.9 53.05 43.9 50.1 43.95 46.9 42.6 43.7 41.25 40.45 37.6 37.55 34.2 34.85 28 32.65 19.35 33.65 10.75 35.25 12.2 36.65 14.4 38 17.65 40.1 23.1 41.8 25.15 42.35 27.4 43.35 29.7 44.3 31.35 45.9 32.95 47.5 33.05 49.9 33 52 31.7 53.4 30.4 54.85 28.25 55.55 26.1 56.3 23.5 56.3 19.2 56.2 16.55 54.85 13.95 53.5 12.55 51.5 11.15 49.45 10.5 47.45
M 70.9 31.2
Q 66.1 30.95 61.3 30.9 60.9 33.4 60.45 36.6 59.75 42.2 59.7 49.7 59.7 55.5 60.05 58.9 60.35 62.35 60.8 64 61.3 65.65 61.9 66.15 62.45 66.65 63 66.6 63.55 66.5 63.95 66.45
L 70.95 66.45
Q 71.45 66.5 72.2 66.5 72.95 66.5 73.6 66.25 74.2 66 74.25 65.3 74.15 64.7 73.3 61.65 72.4 58.55 71.5 52.8 70.65 47 70.55 38.45 70.55 36.05 70.75 32.9 70.8 32.05 70.9 31.2
M 121.95 47
Q 122.75 47.95 122.8 49.45 122.75 52.3 121.95 54.95 121.2 57.55 120.2 59.7 119.2 61.85 118.4 63.4 117.65 64.9 117.6 65.65 117.65 66.1 118.15 66.3 118.6 66.45 119.25 66.45 119.85 66.45 120.15 66.45
L 127.7 66.45
Q 128.25 66.5 128.95 66.5 129.6 66.5 130.25 65.95 130.9 65.35 131.4 63.75 131.95 62.15 132.25 58.95 132.55 55.7 132.55 50.4 132.55 46.15 132.15 42.45 124.65 40.3 117.1 37.65 114.7 37.1 112.35 36.6 111.9 36.65 111.5 36.7 108.65 37.15 106.55 37.55 104.45 37.95 103.8 38 103.2 38 102.85 37.65 102.55 37.35 102.55 36.7 102.55 35.8 102.8 34.75 98.05 33.95 93.3 33.3 92.75 34.75 92.3 36.3 90.25 43.1 90.2 51.7 90.2 56.1 90.55 59.4 90.95 62.7 91.9 64.55 92.85 66.4 94.55 66.45
L 104.15 66.45
Q 104.8 66.45 105.1 66.35 105.4 66.3 105.4 66 105.35 65.45 104.3 63.6 103.25 61.75 102.15 59.2 101.1 56.65 101.05 54 101.1 51.15 102.65 49.4 104.25 47.65 106.7 46.75 109.15 45.85 111.8 45.6 114.55 45.25 116.9 45.3 118.4 45.3 119.75 45.7 121.05 46.1 121.95 47
M 166.05 50.8
Q 166 53.35 164.6 54.95 163.2 56.5 161 57.2 158.75 57.9 156.3 57.9 153.55 57.95 151.8 57.15 150 56.4 149.15 53.9 148.25 51.45 148.25 46.45 148.25 46.35 148.25 46.3 143.2 45.3 138.1 44 138.1 50.55 138.3 54.75 138.55 59.4 138.9 61.85 139.25 64.3 139.75 65.25 140.2 66.25 140.75 66.4 141.25 66.5 141.8 66.45
L 161.95 66.45
Q 167.4 66.4 170.7 64.55 174 62.7 175.45 59.8 176.9 56.85 176.9 53.55 176.85 51.65 176.55 50 171.2 49.65 165.85 49.05 166.05 49.95 166.05 50.8
M 194.05 54.75
Q 193.7 52.3 193.65 50.25 188.1 50.4 182.55 50.25 182.55 52.75 182.65 54.75 182.9 59.4 183.25 61.85 183.6 64.3 184.1 65.25 184.6 66.25 185.1 66.4 185.6 66.5 186.15 66.45
L 194 66.45
Q 194.35 66.45 194.9 66.5 195.4 66.5 195.8 66.35 196.25 66.2 196.25 65.85 196.25 65.55 195.85 63.85 195.5 62.2 194.95 59.8 194.45 57.35 194.05 54.75
M 242 42.65
Q 238.05 43.75 234.1 44.75 234.15 46.1 234.2 48.5 234.3 53.8 234.4 56.2 235 66.5 237.9 68.75
L 237.95 68.8
Q 238.05 68.7 238.15 68.6 240.9 66.1 241.45 56.2 241.6 53.8 241.7 48.5 241.75 44.4 241.9 43.3 241.95 42.95 242 42.65
M 294.5 43.7
Q 293.15 40.45 289.5 37.55 285.8 34.65 278.85 32.25 278.45 32.15 278.05 32 270.65 33.5 263.2 35.75 264.5 36.9 266.3 38 269.55 40.1 275 41.8 277.05 42.35 279.3 43.35 281.6 44.3 283.25 45.9 284.85 47.5 284.95 49.9 284.9 52 283.6 53.4 282.3 54.85 280.15 55.55 278 56.3 275.4 56.3 271.1 56.2 268.45 54.85 265.85 53.5 264.45 51.5 263.05 49.45 262.4 47.45 261.8 45.45 261.55 44.05 261.3 42.75 261 42.65 260.6 42.65 259.65 43.75 258.7 44.85 257.85 46.8 257 48.85 256.9 51.75 256.95 55.7 258.55 58.65 260.2 61.65 262.95 63.55 265.65 65.55 269.05 66.5 272.45 67.45 276.1 67.45 281.35 67.45 285.1 65.85 288.9 64.25 291.25 61.7 293.6 59.1 294.7 56.1 295.8 53.05 295.8 50.1 295.85 46.9 294.5 43.7
M 362.85 60.05
Q 362.75 56.9 360.65 54.85 358.45 52.8 355.2 52.7 353.15 52.75 351.5 53.7 349.85 54.7 348.85 56.35 347.85 58 347.85 60 347.9 63.2 350 65.25 352.1 67.35 355.25 67.45 357.4 67.45 359.1 66.5 360.8 65.5 361.8 63.85 362.85 62.2 362.85 60.05
M 341.95 35.3
Q 341.85 33.7 341.7 32.15 336 30.85 330.25 30.05 329.45 30.4 328.25 30.35 326.9 30.3 325.3 30.25 321.9 30.3 319.95 30.6 318.05 30.9 317.05 31.3 316.05 31.65 315.4 31.95 314.8 32.25 314.05 32.25 313.3 32.25 312.9 31.25 312.45 30.3 312.45 29 312.45 28.8 312.45 28.65 307.3 28.55 302.15 28.85 301.95 31.15 301.8 33.4 301.55 37.15 301.45 40.1 301.35 42.95 301.35 44.25 301.35 45.2 301.35 47.65 301.35 50.15 301.45 53.3 301.55 56.45 301.75 59.5 301.95 62.45 302.3 64.4 302.65 66.4 303.2 66.45
L 313.1 66.45
Q 313.35 66.45 313.85 66.5 314.35 66.5 314.8 66.4 315.2 66.2 315.2 65.75 315.2 65.55 315.15 65.25 315.05 65 314.95 64.8 313.55 61.4 312.85 57.7 312.2 53.95 312.2 50.3 312.25 46.45 314.3 43.95 316.4 41.55 319.55 40.4 322.75 39.3 326.2 39.3 329.55 39.25 331.05 40.65 332.55 42 332.5 45.4 332.5 50.35 331.25 55.15 330.05 59.85 328.25 64.5 328.15 64.7 328.05 64.95 328.05 65.15 328.05 65.45 328.05 65.95 328.5 66.2 329 66.4 329.55 66.4 330.15 66.45 330.5 66.45
L 340.15 66.45
Q 340.8 66.4 341.2 64.45 341.6 62.5 341.85 59.55 342.05 56.6 342.15 53.45 342.25 50.3 342.25 47.8 342.3 45.3 342.3 44.25 342.3 39.9 341.95 35.3
M 377.4 44.8
Q 372.85 43.3 368.2 41.4 368.2 42.75 368.2 44.25 368.2 51.3 368.25 55.6 368.3 59.95 368.45 62.25 368.65 64.55 369.05 65.45 369.45 66.3 370.1 66.4 370.75 66.5 371.7 66.45
L 376.25 66.45
Q 377.05 66.5 377.85 66.5 378.7 66.5 379.25 66.1 379.8 65.75 379.8 64.7 379.75 64.4 379.15 60.95 378.5 57.55 377.9 51.45 377.6 48.4 377.4 44.8
M 417.85 48.05
Q 413.4 48.8 408.95 49.1 408.55 50.5 407.95 51.8 407 53.75 405.3 55 403.65 56.25 401.1 56.3 398.6 56.25 396.95 55 395.25 53.75 394.3 51.8 393.55 50.2 393.15 48.45 388.8 47.8 384.35 46.75 384.6 51.5 385.85 55.1 387.35 59.4 389.85 62.1 392.3 64.85 395.25 66.15 398.2 67.45 401.1 67.45 404.05 67.45 407 66.15 409.95 64.85 412.4 62.1 414.9 59.4 416.4 55.1 417.5 52 417.85 48.05 Z"/>

<path fill="#34AAC8" stroke="none" d="
M 20.75 19.3
Q 22.55 18.7 24.25 18.7 26.85 18.75 28.7 19.65 30.55 20.55 31.85 21.75 33.15 22.9 34 23.8 34.9 24.7 35.5 24.75 36.25 24.7 37.15 23.75 38.05 22.85 38.9 21.45 39.75 20.1 40.3 18.8 40.85 17.5 40.9 16.8 40.85 15.75 38.7 14.05 36.6 12.45 32.85 11.1 29.15 9.75 24.25 9.7 19.15 9.75 15.8 11.25 12.4 12.8 10.4 15.2 8.45 17.55 7.65 20.15 6.8 22.7 6.8 24.9 6.8 27.05 7.3 29.3 7.85 31.55 9.45 33.75 10 34.5 10.75 35.25 19.35 33.65 28 32.65 27.5 32.45 26.95 32.25 25.5 31.8 23.75 31.15 22 30.55 20.35 29.6 18.75 28.7 17.7 27.4 16.65 26.1 16.6 24.3 16.65 22.35 17.85 21.1 19.05 19.85 20.75 19.3
M 81.05 22.25
Q 82.1 23.35 82.85 24.15 83.6 25 84.05 25.05 84.35 25 84.95 24 85.6 23 86.3 21.45 87.05 19.95 87.5 18.4 88.05 16.85 88.05 15.7 88 14.1 85.15 12.75 82.4 11.4 77.75 10.55 73.15 9.7 67.7 9.7 63.1 9.7 58.95 10.4 54.8 11 52.1 11.85 49.35 12.7 48.9 13.4 48.55 14.15 48.05 15.75 47.55 17.45 47.15 19.45 46.7 21.4 46.4 23.1 46.15 24.8 46.1 25.6 46.1 26.95 46.35 27.15 46.6 27.3 47.05 27.25 47.5 27.2 49.1 26.05 50.65 24.9 52.85 23.4 55 21.9 57.25 20.75 59.5 19.6 61.3 19.55 62.5 19.55 62.6 20.4 62.7 21.25 62.65 22.75 62.6 24 61.9 27.5 61.6 29 61.3 30.9 66.1 30.95 70.9 31.2 71.05 28.85 71.4 26.65 71.9 23.6 72.85 21.55 73.8 19.55 75.3 19.45 77.15 19.5 78.55 20.35 80 21.15 81.05 22.25
M 132.15 42.45
Q 131.7 37.95 130.75 34.2 129 27.3 126.35 22.6 123.65 17.9 120.9 15.05 118.05 12.2 115.95 10.95 113.8 9.65 113.05 9.7 112.1 9.7 109.55 11.35 107 12.95 103.75 16.25 100.45 19.5 97.4 24.55 95 28.4 93.3 33.3 98.05 33.95 102.8 34.75 103.1 33.6 103.7 32.25 104.85 29.6 106.55 27.1 108.3 24.6 110.1 22.85 111.9 21.2 113.3 21.15 114.3 21.2 115.6 22.6 116.8 23.95 118.05 26 119.25 28.1 120.05 30.25 120.8 32.45 120.85 34.05 120.85 35.4 120 35.85 119.2 36.3 117.4 36.25 114.85 36.3 112.35 36.6 114.7 37.1 117.1 37.65 124.65 40.3 132.15 42.45
M 173.75 20.5
Q 173.8 18.3 172.85 16.05 171.85 13.8 168.85 12.3 165.95 10.75 160.05 10.7
L 142.7 10.7
Q 142.35 10.65 141.8 10.85 141.25 11.05 140.6 12.4 139.95 13.75 139.4 17.1 138.8 20.4 138.45 26.55 138.1 32.75 138.1 42.6 138.1 43.3 138.1 44 143.2 45.3 148.25 46.3 148.35 44.8 149.05 44.15 149.8 43.5 151.15 42.8
L 155.5 40.45
Q 156.1 40.1 156.85 39.75 157.65 39.35 158.35 39.35 159.05 39.35 160.3 40.45 161.55 41.5 162.85 43.25 164.15 45 165.1 47 165.6 48.05 165.85 49.05 171.2 49.65 176.55 50 176.25 48.55 175.75 47.3 174.7 44.55 173.1 42.45 171.5 40.3 169.9 38.7 168.3 37.15 167.2 36.05 166.1 34.9 166.1 34.25 166.15 33.45 167.3 32.25 168.4 31 169.9 29.35 171.4 27.65 172.55 25.45 173.7 23.25 173.75 20.5
M 162.05 20.15
Q 162.85 21.05 162.9 22.65 162.85 24 162.1 25.45 161.3 26.9 160.25 28.15 159.1 29.35 158.15 30.05
L 153.25 33.55
Q 152.4 34.15 151.3 34.6 150.25 35 149.6 35.05 148.25 35 148.05 34 147.8 33 147.85 31.95 147.85 26.75 148.9 23.85 149.95 20.95 152.05 19.75 154.2 18.6 157.5 18.6 158.85 18.6 160.05 18.95 161.3 19.3 162.05 20.15
M 215.65 10.7
Q 214.9 10.7 214.45 10.7
L 187.05 10.7
Q 186.7 10.65 186.15 10.85 185.6 11.05 184.95 12.4 184.3 13.75 183.75 17.1 183.15 20.4 182.8 26.55 182.45 32.75 182.45 42.6 182.45 46.9 182.55 50.25 188.1 50.4 193.65 50.25 193.65 50.05 193.65 49.9 193.65 45.75 195.85 43.4 198.05 41.05 202.45 41 204.45 41.05 205.75 41.45 207.05 41.9 207.55 41.95 208 41.85 208.65 40.3 209.25 38.75 209.9 36.65 210.45 34.6 210.9 33 211.3 31.35 211.3 31.15 211.25 30.35 210.45 30.15 209.65 29.95 209.05 30 205.75 30.05 203.8 30.5 201.8 30.95 200.55 31.55 199.3 32.15 198.15 32.6 197.05 33.05 195.4 33.1 194 33.15 193.65 31.95 193.25 30.75 193.3 27.8 193.35 24.6 194.75 22.55 196.1 20.5 198.3 19.55 200.45 18.6 202.8 18.6 206.05 18.7 208 19.45 209.9 20.2 210.95 20.95 212 21.7 212.55 21.75 212.9 21.7 213.7 20.3 214.55 18.9 215.4 17 216.35 15.1 217 13.6 217.65 12.1 217.65 11.85 217.65 11.2 217 10.95 216.4 10.7 215.65 10.7
M 249.5 19.7
Q 248.6 17.85 247 16.25 244.55 13.8 242.85 12.7 240.7 11.25 238.75 11.05 241.5 10.8 243.55 8.95 245.4 7.25 245.8 5.05 241.5 4.7 238.05 7.1 234.2 4.85 230.1 5.05 230.45 7.25 232.3 8.95 234.35 10.8 237.15 11.05 235.15 11.25 233 12.7 231.3 13.8 228.9 16.25 227.3 17.85 226.35 19.7 225.5 18.75 222.9 17.65 219.85 16.3 218.3 16.75 218 16.8 217.65 16.9 219.25 22.45 225.1 25.3 225.1 25.75 225.15 26.2 225.15 26.45 225.2 26.7 225.2 27 225.25 27.3
L 225.25 27.35 225.3 27.55
Q 225.35 28.05 225.45 28.5 225.5 28.75 225.55 29 226.4 32.4 228.9 35.05 230.65 37 232.85 38 233.35 38.65 233.55 40.1 233.7 41 233.95 43.3 234.05 43.75 234.1 44.75 238.05 43.75 242 42.65 242.2 40.85 242.3 40.1 242.5 38.65 243 38 245.2 37 247 35.05 249.5 32.4 250.3 29 250.4 28.75 250.4 28.5 250.5 28.1 250.6 27.65
L 250.6 27.3
Q 250.65 27 250.7 26.7 250.7 26.45 250.7 26.2 250.75 25.75 250.75 25.3
L 250.75 25.25
Q 256.6 22.45 258.2 16.9 257.9 16.8 257.55 16.75 256 16.3 252.95 17.65 250.4 18.75 249.5 19.7
M 246.15 31.4
Q 246.4 31.1 246.85 31.1 247.25 31.1 247.55 31.4 247.85 31.65 247.85 32.05 247.85 32.5 247.55 32.8 247.25 33.05 246.85 33.05 246.4 33.05 246.15 32.8 245.85 32.5 245.85 32.05 245.85 31.65 246.15 31.4
M 228.5 31.4
Q 228.75 31.1 229.2 31.1 229.6 31.1 229.9 31.4 230.2 31.65 230.2 32.05 230.2 32.5 229.9 32.8 229.6 33.05 229.2 33.05 228.75 33.05 228.5 32.8 228.2 32.5 228.2 32.05 228.2 31.65 228.5 31.4
M 290.6 14.05
Q 288.5 12.45 284.75 11.1 281.05 9.75 276.15 9.7 271.05 9.75 267.7 11.25 264.3 12.8 262.3 15.2 260.35 17.55 259.55 20.15 258.7 22.7 258.7 24.9 258.7 27.05 259.2 29.3 259.75 31.55 261.35 33.75 262.1 34.75 263.2 35.75 270.65 33.5 278.05 32 276.9 31.6 275.65 31.15 273.9 30.55 272.25 29.6 270.65 28.7 269.6 27.4 268.55 26.1 268.5 24.3 268.55 22.35 269.75 21.1 270.95 19.85 272.65 19.3 274.45 18.7 276.15 18.7 278.75 18.75 280.6 19.65 282.45 20.55 283.75 21.75 285.05 22.9 285.9 23.8 286.8 24.7 287.4 24.75 288.15 24.7 289.05 23.75 289.95 22.85 290.8 21.45 291.65 20.1 292.2 18.8 292.75 17.5 292.8 16.8 292.75 15.75 290.6 14.05
M 317 11.3
Q 317 10.95 316.6 10.8 316.2 10.65 315.7 10.65 315.25 10.7 315 10.7
L 305.9 10.7
Q 305.1 10.75 304.45 12.85 303.8 14.9 303.3 18.35 302.8 21.7 302.4 25.65 302.25 27.25 302.15 28.85 307.3 28.55 312.45 28.65 312.55 26.1 313.2 23.35 313.85 20.4 314.75 17.8 315.65 15.2 316.3 13.45 316.95 11.7 317 11.3
M 325.8 10.8
Q 325.3 10.95 325.3 11.4 325.3 11.75 326.2 13.5 327.1 15.2 328.25 17.75 329.35 20.25 330.25 23 331.15 25.75 331.15 28.2 331.15 29.55 330.4 29.95 330.3 30 330.25 30.05 336 30.85 341.7 32.15 341.4 29.15 341 26.3 340.35 21.95 339.6 18.4 338.85 14.9 338.05 12.85 337.25 10.75 336.45 10.7
L 327.65 10.7
Q 327.45 10.7 326.9 10.65 326.3 10.65 325.8 10.8
M 370.25 23.55
Q 369.75 23.55 369.35 24.25 368.95 24.95 368.7 27.1 368.45 29.2 368.3 33.3 368.2 36.55 368.2 41.4 372.85 43.3 377.4 44.8 377.25 41.1 377.2 36.85 377.2 33.2 377.4 30.95 377.6 28.7 377.8 27.2 378 25.75 378 24.6 378 24.2 377.9 23.95 377.75 23.7 377.15 23.65 376.5 23.55 375.15 23.55
L 371.45 23.55
Q 370.8 23.5 370.25 23.55
M 374.1 9.3
Q 372 9.35 370.5 10.55 369 11.75 368.95 13.9 369 16.05 370.5 17.2 372 18.35 374.1 18.35 376.15 18.35 377.65 17.2 379.15 16.05 379.25 13.9 379.15 11.75 377.65 10.55 376.15 9.35 374.1 9.3
M 405.25 31.7
Q 406.9 32.9 407.85 34.9 408.8 36.8 409.25 39.05 409.65 41.25 409.65 43.25 409.65 45.3 409.25 47.55 409.15 48.35 408.95 49.1 413.4 48.8 417.85 48.05 417.95 46.55 417.95 44.95 417.95 40.85 416.95 36.9 415.95 32.95 413.9 29.7 411.85 26.45 408.7 24.55 405.45 22.6 401.1 22.55 396.75 22.6 393.55 24.55 390.4 26.45 388.35 29.7 386.3 32.95 385.3 36.9 384.3 40.85 384.3 44.95 384.3 45.85 384.35 46.75 388.8 47.8 393.15 48.45 393.05 48 393 47.55 392.6 45.3 392.6 43.25 392.6 41.25 393 39.05 393.45 36.8 394.4 34.9 395.35 32.9 397 31.7 398.65 30.5 401.1 30.45 403.6 30.5 405.25 31.7 Z"/>
</g>

<path id="Layer1_0_1_STROKES" stroke="url(#Gradient_1)" stroke-width="4" stroke-linejoin="round" stroke-linecap="round" fill="none" d="
M 393.15 48.45
Q 393.05 48 393 47.55 392.6 45.3 392.6 43.25 392.6 41.25 393 39.05 393.45 36.8 394.4 34.9 395.35 32.9 397 31.7 398.65 30.5 401.1 30.45 403.6 30.5 405.25 31.7 406.9 32.9 407.85 34.9 408.8 36.8 409.25 39.05 409.65 41.25 409.65 43.25 409.65 45.3 409.25 47.55 409.15 48.35 408.95 49.1"/>

<path id="Layer1_0_2_STROKES" stroke="url(#Gradient_2)" stroke-width="4" stroke-linejoin="round" stroke-linecap="round" fill="none" d="
M 417.85 48.05
Q 417.95 46.55 417.95 44.95 417.95 40.85 416.95 36.9 415.95 32.95 413.9 29.7 411.85 26.45 408.7 24.55 405.45 22.6 401.1 22.55 396.75 22.6 393.55 24.55 390.4 26.45 388.35 29.7 386.3 32.95 385.3 36.9 384.3 40.85 384.3 44.95 384.3 45.85 384.35 46.75 384.6 51.5 385.85 55.1 387.35 59.4 389.85 62.1 392.3 64.85 395.25 66.15 398.2 67.45 401.1 67.45 404.05 67.45 407 66.15 409.95 64.85 412.4 62.1 414.9 59.4 416.4 55.1 417.5 52 417.85 48.05 Z"/>

<path id="Layer1_0_3_STROKES" stroke="url(#Gradient_3)" stroke-width="4" stroke-linejoin="round" stroke-linecap="round" fill="none" d="
M 393.15 48.45
Q 393.55 50.2 394.3 51.8 395.25 53.75 396.95 55 398.6 56.25 401.1 56.3 403.65 56.25 405.3 55 407 53.75 407.95 51.8 408.55 50.5 408.95 49.1"/>

<path id="Layer1_0_4_STROKES" stroke="url(#Gradient_4)" stroke-width="4" stroke-linejoin="round" stroke-linecap="round" fill="none" d="
M 374.1 18.35
Q 376.15 18.35 377.65 17.2 379.15 16.05 379.25 13.9 379.15 11.75 377.65 10.55 376.15 9.35 374.1 9.3 372 9.35 370.5 10.55 369 11.75 368.95 13.9 369 16.05 370.5 17.2 372 18.35 374.1 18.35 Z"/>

<path id="Layer1_0_5_STROKES" stroke="url(#Gradient_5)" stroke-width="4" stroke-linejoin="round" stroke-linecap="round" fill="none" d="
M 377.4 44.8
Q 377.25 41.1 377.2 36.85 377.2 33.2 377.4 30.95 377.6 28.7 377.8 27.2 378 25.75 378 24.6 378 24.2 377.9 23.95 377.75 23.7 377.15 23.65 376.5 23.55 375.15 23.55
L 371.45 23.55
Q 370.8 23.5 370.25 23.55 369.75 23.55 369.35 24.25 368.95 24.95 368.7 27.1 368.45 29.2 368.3 33.3 368.2 36.55 368.2 41.4
M 377.4 44.8
Q 377.6 48.4 377.9 51.45 378.5 57.55 379.15 60.95 379.75 64.4 379.8 64.7 379.8 65.75 379.25 66.1 378.7 66.5 377.85 66.5 377.05 66.5 376.25 66.45
L 371.7 66.45
Q 370.75 66.5 370.1 66.4 369.45 66.3 369.05 65.45 368.65 64.55 368.45 62.25 368.3 59.95 368.25 55.6 368.2 51.3 368.2 44.25 368.2 42.75 368.2 41.4"/>

<path id="Layer1_0_6_STROKES" stroke="url(#Gradient_6)" stroke-width="4" stroke-linejoin="round" stroke-linecap="round" fill="none" d="
M 341.7 32.15
Q 341.4 29.15 341 26.3 340.35 21.95 339.6 18.4 338.85 14.9 338.05 12.85 337.25 10.75 336.45 10.7
L 327.65 10.7
Q 327.45 10.7 326.9 10.65 326.3 10.65 325.8 10.8 325.3 10.95 325.3 11.4 325.3 11.75 326.2 13.5 327.1 15.2 328.25 17.75 329.35 20.25 330.25 23 331.15 25.75 331.15 28.2 331.15 29.55 330.4 29.95 330.3 30 330.25 30.05
M 341.7 32.15
Q 341.85 33.7 341.95 35.3 342.3 39.9 342.3 44.25 342.3 45.3 342.25 47.8 342.25 50.3 342.15 53.45 342.05 56.6 341.85 59.55 341.6 62.5 341.2 64.45 340.8 66.4 340.15 66.45
L 330.5 66.45
Q 330.15 66.45 329.55 66.4 329 66.4 328.5 66.2 328.05 65.95 328.05 65.45 328.05 65.15 328.05 64.95 328.15 64.7 328.25 64.5 330.05 59.85 331.25 55.15 332.5 50.35 332.5 45.4 332.55 42 331.05 40.65 329.55 39.25 326.2 39.3 322.75 39.3 319.55 40.4 316.4 41.55 314.3 43.95 312.25 46.45 312.2 50.3 312.2 53.95 312.85 57.7 313.55 61.4 314.95 64.8 315.05 65 315.15 65.25 315.2 65.55 315.2 65.75 315.2 66.2 314.8 66.4 314.35 66.5 313.85 66.5 313.35 66.45 313.1 66.45
L 303.2 66.45
Q 302.65 66.4 302.3 64.4 301.95 62.45 301.75 59.5 301.55 56.45 301.45 53.3 301.35 50.15 301.35 47.65 301.35 45.2 301.35 44.25 301.35 42.95 301.45 40.1 301.55 37.15 301.8 33.4 301.95 31.15 302.15 28.85 302.25 27.25 302.4 25.65 302.8 21.7 303.3 18.35 303.8 14.9 304.45 12.85 305.1 10.75 305.9 10.7
L 315 10.7
Q 315.25 10.7 315.7 10.65 316.2 10.65 316.6 10.8 317 10.95 317 11.3 316.95 11.7 316.3 13.45 315.65 15.2 314.75 17.8 313.85 20.4 313.2 23.35 312.55 26.1 312.45 28.65 312.45 28.8 312.45 29 312.45 30.3 312.9 31.25 313.3 32.25 314.05 32.25 314.8 32.25 315.4 31.95 316.05 31.65 317.05 31.3 318.05 30.9 319.95 30.6 321.9 30.3 325.3 30.25 326.9 30.3 328.25 30.35 329.45 30.4 330.25 30.05"/>

<path id="Layer1_0_7_STROKES" stroke="url(#Gradient_7)" stroke-width="4" stroke-linejoin="round" stroke-linecap="round" fill="none" d="
M 355.25 67.45
Q 357.4 67.45 359.1 66.5 360.8 65.5 361.8 63.85 362.85 62.2 362.85 60.05 362.75 56.9 360.65 54.85 358.45 52.8 355.2 52.7 353.15 52.75 351.5 53.7 349.85 54.7 348.85 56.35 347.85 58 347.85 60 347.9 63.2 350 65.25 352.1 67.35 355.25 67.45 Z"/>

<path id="Layer1_0_8_STROKES" stroke="url(#Gradient_8)" stroke-width="4" stroke-linejoin="round" stroke-linecap="round" fill="none" d="
M 278.05 32
Q 276.9 31.6 275.65 31.15 273.9 30.55 272.25 29.6 270.65 28.7 269.6 27.4 268.55 26.1 268.5 24.3 268.55 22.35 269.75 21.1 270.95 19.85 272.65 19.3 274.45 18.7 276.15 18.7 278.75 18.75 280.6 19.65 282.45 20.55 283.75 21.75 285.05 22.9 285.9 23.8 286.8 24.7 287.4 24.75 288.15 24.7 289.05 23.75 289.95 22.85 290.8 21.45 291.65 20.1 292.2 18.8 292.75 17.5 292.8 16.8 292.75 15.75 290.6 14.05 288.5 12.45 284.75 11.1 281.05 9.75 276.15 9.7 271.05 9.75 267.7 11.25 264.3 12.8 262.3 15.2 260.35 17.55 259.55 20.15 258.7 22.7 258.7 24.9 258.7 27.05 259.2 29.3 259.75 31.55 261.35 33.75 262.1 34.75 263.2 35.75
M 278.05 32
Q 278.45 32.15 278.85 32.25 285.8 34.65 289.5 37.55 293.15 40.45 294.5 43.7 295.85 46.9 295.8 50.1 295.8 53.05 294.7 56.1 293.6 59.1 291.25 61.7 288.9 64.25 285.1 65.85 281.35 67.45 276.1 67.45 272.45 67.45 269.05 66.5 265.65 65.55 262.95 63.55 260.2 61.65 258.55 58.65 256.95 55.7 256.9 51.75 257 48.85 257.85 46.8 258.7 44.85 259.65 43.75 260.6 42.65 261 42.65 261.3 42.75 261.55 44.05 261.8 45.45 262.4 47.45 263.05 49.45 264.45 51.5 265.85 53.5 268.45 54.85 271.1 56.2 275.4 56.3 278 56.3 280.15 55.55 282.3 54.85 283.6 53.4 284.9 52 284.95 49.9 284.85 47.5 283.25 45.9 281.6 44.3 279.3 43.35 277.05 42.35 275 41.8 269.55 40.1 266.3 38 264.5 36.9 263.2 35.75"/>

<path id="Layer1_0_9_STROKES" stroke="url(#Gradient_9)" stroke-width="4" stroke-linejoin="round" stroke-linecap="round" fill="none" d="
M 193.65 50.25
Q 193.65 50.05 193.65 49.9 193.65 45.75 195.85 43.4 198.05 41.05 202.45 41 204.45 41.05 205.75 41.45 207.05 41.9 207.55 41.95 208 41.85 208.65 40.3 209.25 38.75 209.9 36.65 210.45 34.6 210.9 33 211.3 31.35 211.3 31.15 211.25 30.35 210.45 30.15 209.65 29.95 209.05 30 205.75 30.05 203.8 30.5 201.8 30.95 200.55 31.55 199.3 32.15 198.15 32.6 197.05 33.05 195.4 33.1 194 33.15 193.65 31.95 193.25 30.75 193.3 27.8 193.35 24.6 194.75 22.55 196.1 20.5 198.3 19.55 200.45 18.6 202.8 18.6 206.05 18.7 208 19.45 209.9 20.2 210.95 20.95 212 21.7 212.55 21.75 212.9 21.7 213.7 20.3 214.55 18.9 215.4 17 216.35 15.1 217 13.6 217.65 12.1 217.65 11.85 217.65 11.2 217 10.95 216.4 10.7 215.65 10.7 214.9 10.7 214.45 10.7
L 187.05 10.7
Q 186.7 10.65 186.15 10.85 185.6 11.05 184.95 12.4 184.3 13.75 183.75 17.1 183.15 20.4 182.8 26.55 182.45 32.75 182.45 42.6 182.45 46.9 182.55 50.25
M 193.65 50.25
Q 193.7 52.3 194.05 54.75 194.45 57.35 194.95 59.8 195.5 62.2 195.85 63.85 196.25 65.55 196.25 65.85 196.25 66.2 195.8 66.35 195.4 66.5 194.9 66.5 194.35 66.45 194 66.45
L 186.15 66.45
Q 185.6 66.5 185.1 66.4 184.6 66.25 184.1 65.25 183.6 64.3 183.25 61.85 182.9 59.4 182.65 54.75 182.55 52.75 182.55 50.25"/>

<path id="Layer1_0_10_STROKES" stroke="url(#Gradient_10)" stroke-width="4" stroke-linejoin="round" stroke-linecap="round" fill="none" d="
M 153.25 33.55
Q 152.4 34.15 151.3 34.6 150.25 35 149.6 35.05 148.25 35 148.05 34 147.8 33 147.85 31.95 147.85 26.75 148.9 23.85 149.95 20.95 152.05 19.75 154.2 18.6 157.5 18.6 158.85 18.6 160.05 18.95 161.3 19.3 162.05 20.15 162.85 21.05 162.9 22.65 162.85 24 162.1 25.45 161.3 26.9 160.25 28.15 159.1 29.35 158.15 30.05
L 153.25 33.55 Z"/>

<path id="Layer1_0_11_STROKES" stroke="url(#Gradient_11)" stroke-width="4" stroke-linejoin="round" stroke-linecap="round" fill="none" d="
M 176.55 50
Q 176.25 48.55 175.75 47.3 174.7 44.55 173.1 42.45 171.5 40.3 169.9 38.7 168.3 37.15 167.2 36.05 166.1 34.9 166.1 34.25 166.15 33.45 167.3 32.25 168.4 31 169.9 29.35 171.4 27.65 172.55 25.45 173.7 23.25 173.75 20.5 173.8 18.3 172.85 16.05 171.85 13.8 168.85 12.3 165.95 10.75 160.05 10.7
L 142.7 10.7
Q 142.35 10.65 141.8 10.85 141.25 11.05 140.6 12.4 139.95 13.75 139.4 17.1 138.8 20.4 138.45 26.55 138.1 32.75 138.1 42.6 138.1 43.3 138.1 44
M 176.55 50
Q 176.85 51.65 176.9 53.55 176.9 56.85 175.45 59.8 174 62.7 170.7 64.55 167.4 66.4 161.95 66.45
L 141.8 66.45
Q 141.25 66.5 140.75 66.4 140.2 66.25 139.75 65.25 139.25 64.3 138.9 61.85 138.55 59.4 138.3 54.75 138.1 50.55 138.1 44"/>

<path id="Layer1_0_12_STROKES" stroke="url(#Gradient_12)" stroke-width="4" stroke-linejoin="round" stroke-linecap="round" fill="none" d="
M 148.25 46.3
Q 148.35 44.8 149.05 44.15 149.8 43.5 151.15 42.8
L 155.5 40.45
Q 156.1 40.1 156.85 39.75 157.65 39.35 158.35 39.35 159.05 39.35 160.3 40.45 161.55 41.5 162.85 43.25 164.15 45 165.1 47 165.6 48.05 165.85 49.05"/>

<path id="Layer1_0_13_STROKES" stroke="url(#Gradient_13)" stroke-width="4" stroke-linejoin="round" stroke-linecap="round" fill="none" d="
M 165.85 49.05
Q 166.05 49.95 166.05 50.8 166 53.35 164.6 54.95 163.2 56.5 161 57.2 158.75 57.9 156.3 57.9 153.55 57.95 151.8 57.15 150 56.4 149.15 53.9 148.25 51.45 148.25 46.45 148.25 46.35 148.25 46.3"/>

<path id="Layer1_0_14_STROKES" stroke="url(#Gradient_14)" stroke-width="4" stroke-linejoin="round" stroke-linecap="round" fill="none" d="
M 93.3 33.3
Q 92.75 34.75 92.3 36.3 90.25 43.1 90.2 51.7 90.2 56.1 90.55 59.4 90.95 62.7 91.9 64.55 92.85 66.4 94.55 66.45
L 104.15 66.45
Q 104.8 66.45 105.1 66.35 105.4 66.3 105.4 66 105.35 65.45 104.3 63.6 103.25 61.75 102.15 59.2 101.1 56.65 101.05 54 101.1 51.15 102.65 49.4 104.25 47.65 106.7 46.75 109.15 45.85 111.8 45.6 114.55 45.25 116.9 45.3 118.4 45.3 119.75 45.7 121.05 46.1 121.95 47 122.75 47.95 122.8 49.45 122.75 52.3 121.95 54.95 121.2 57.55 120.2 59.7 119.2 61.85 118.4 63.4 117.65 64.9 117.6 65.65 117.65 66.1 118.15 66.3 118.6 66.45 119.25 66.45 119.85 66.45 120.15 66.45
L 127.7 66.45
Q 128.25 66.5 128.95 66.5 129.6 66.5 130.25 65.95 130.9 65.35 131.4 63.75 131.95 62.15 132.25 58.95 132.55 55.7 132.55 50.4 132.55 46.15 132.15 42.45
M 93.3 33.3
Q 95 28.4 97.4 24.55 100.45 19.5 103.75 16.25 107 12.95 109.55 11.35 112.1 9.7 113.05 9.7 113.8 9.65 115.95 10.95 118.05 12.2 120.9 15.05 123.65 17.9 126.35 22.6 129 27.3 130.75 34.2 131.7 37.95 132.15 42.45"/>

<path id="Layer1_0_15_STROKES" stroke="url(#Gradient_15)" stroke-width="4" stroke-linejoin="round" stroke-linecap="round" fill="none" d="
M 102.8 34.75
Q 103.1 33.6 103.7 32.25 104.85 29.6 106.55 27.1 108.3 24.6 110.1 22.85 111.9 21.2 113.3 21.15 114.3 21.2 115.6 22.6 116.8 23.95 118.05 26 119.25 28.1 120.05 30.25 120.8 32.45 120.85 34.05 120.85 35.4 120 35.85 119.2 36.3 117.4 36.25 114.85 36.3 112.35 36.6"/>

<path id="Layer1_0_16_STROKES" stroke="url(#Gradient_16)" stroke-width="4" stroke-linejoin="round" stroke-linecap="round" fill="none" d="
M 70.9 31.2
Q 71.05 28.85 71.4 26.65 71.9 23.6 72.85 21.55 73.8 19.55 75.3 19.45 77.15 19.5 78.55 20.35 80 21.15 81.05 22.25 82.1 23.35 82.85 24.15 83.6 25 84.05 25.05 84.35 25 84.95 24 85.6 23 86.3 21.45 87.05 19.95 87.5 18.4 88.05 16.85 88.05 15.7 88 14.1 85.15 12.75 82.4 11.4 77.75 10.55 73.15 9.7 67.7 9.7 63.1 9.7 58.95 10.4 54.8 11 52.1 11.85 49.35 12.7 48.9 13.4 48.55 14.15 48.05 15.75 47.55 17.45 47.15 19.45 46.7 21.4 46.4 23.1 46.15 24.8 46.1 25.6 46.1 26.95 46.35 27.15 46.6 27.3 47.05 27.25 47.5 27.2 49.1 26.05 50.65 24.9 52.85 23.4 55 21.9 57.25 20.75 59.5 19.6 61.3 19.55 62.5 19.55 62.6 20.4 62.7 21.25 62.65 22.75 62.6 24 61.9 27.5 61.6 29 61.3 30.9
M 70.9 31.2
Q 70.8 32.05 70.75 32.9 70.55 36.05 70.55 38.45 70.65 47 71.5 52.8 72.4 58.55 73.3 61.65 74.15 64.7 74.25 65.3 74.2 66 73.6 66.25 72.95 66.5 72.2 66.5 71.45 66.5 70.95 66.45
L 63.95 66.45
Q 63.55 66.5 63 66.6 62.45 66.65 61.9 66.15 61.3 65.65 60.8 64 60.35 62.35 60.05 58.9 59.7 55.5 59.7 49.7 59.75 42.2 60.45 36.6 60.9 33.4 61.3 30.9"/>

<path id="Layer1_0_17_STROKES" stroke="url(#Gradient_17)" stroke-width="4" stroke-linejoin="round" stroke-linecap="round" fill="none" d="
M 112.35 36.6
Q 111.9 36.65 111.5 36.7 108.65 37.15 106.55 37.55 104.45 37.95 103.8 38 103.2 38 102.85 37.65 102.55 37.35 102.55 36.7 102.55 35.8 102.8 34.75"/>

<path id="Layer1_0_18_STROKES" stroke="url(#Gradient_18)" stroke-width="4" stroke-linejoin="round" stroke-linecap="round" fill="none" d="
M 28 32.65
Q 27.5 32.45 26.95 32.25 25.5 31.8 23.75 31.15 22 30.55 20.35 29.6 18.75 28.7 17.7 27.4 16.65 26.1 16.6 24.3 16.65 22.35 17.85 21.1 19.05 19.85 20.75 19.3 22.55 18.7 24.25 18.7 26.85 18.75 28.7 19.65 30.55 20.55 31.85 21.75 33.15 22.9 34 23.8 34.9 24.7 35.5 24.75 36.25 24.7 37.15 23.75 38.05 22.85 38.9 21.45 39.75 20.1 40.3 18.8 40.85 17.5 40.9 16.8 40.85 15.75 38.7 14.05 36.6 12.45 32.85 11.1 29.15 9.75 24.25 9.7 19.15 9.75 15.8 11.25 12.4 12.8 10.4 15.2 8.45 17.55 7.65 20.15 6.8 22.7 6.8 24.9 6.8 27.05 7.3 29.3 7.85 31.55 9.45 33.75 10 34.5 10.75 35.25 19.35 33.65 28 32.65 34.2 34.85 37.6 37.55 41.25 40.45 42.6 43.7 43.95 46.9 43.9 50.1 43.9 53.05 42.8 56.1 41.7 59.1 39.35 61.7 37 64.25 33.2 65.85 29.45 67.45 24.2 67.45 20.55 67.45 17.15 66.5 13.75 65.55 11.05 63.55 8.3 61.65 6.65 58.65 5.05 55.7 5 51.75 5.1 48.85 5.95 46.8 6.8 44.85 7.75 43.75 8.7 42.65 9.1 42.65 9.4 42.75 9.65 44.05 9.9 45.45 10.5 47.45 11.15 49.45 12.55 51.5 13.95 53.5 16.55 54.85 19.2 56.2 23.5 56.3 26.1 56.3 28.25 55.55 30.4 54.85 31.7 53.4 33 52 33.05 49.9 32.95 47.5 31.35 45.9 29.7 44.3 27.4 43.35 25.15 42.35 23.1 41.8 17.65 40.1 14.4 38 12.2 36.65 10.75 35.25"/>

<path id="Layer1_1_1_STROKES" stroke="url(#Gradient_19)" stroke-width="4" stroke-linejoin="round" stroke-linecap="round" fill="none" d="
M 1070.9 667.025
Q 1071.1154296875 665.2603515625 1071.2 664.5 1071.4 663.05 1071.9 662.4 1074.1 661.4 1075.9 659.45 1078.4 656.8 1079.2 653.4 1079.3 653.15 1079.3 652.9 1079.4 652.5 1079.5 652.05
L 1079.5 651.7
Q 1079.55 651.4 1079.6 651.1 1079.6 650.85 1079.6 650.6 1079.65 650.15 1079.65 649.7
L 1079.65 649.65
Q 1085.5 646.85 1087.1 641.3 1086.8 641.2 1086.45 641.15 1084.9 640.7 1081.85 642.05 1079.3 643.15 1078.4 644.1 1077.5 642.25 1075.9 640.65 1073.45 638.2 1071.75 637.1 1069.6 635.65 1067.65 635.45 1070.4 635.2 1072.45 633.35 1074.3 631.65 1074.7 629.45 1070.4 629.1 1066.95 631.5 1063.1 629.25 1059 629.45 1059.35 631.65 1061.2 633.35 1063.25 635.2 1066.05 635.45 1064.05 635.65 1061.9 637.1 1060.2 638.2 1057.8 640.65 1056.2 642.25 1055.25 644.1 1054.4 643.15 1051.8 642.05 1048.75 640.7 1047.2 641.15 1046.9 641.2 1046.55 641.3 1048.15 646.85 1054 649.7 1054 650.15 1054.05 650.6 1054.05 650.85 1054.1 651.1 1054.1 651.4 1054.15 651.7
L 1054.15 651.75 1054.2 651.95
Q 1054.25 652.45 1054.35 652.9 1054.4 653.15 1054.45 653.4 1055.3 656.8 1057.8 659.45 1059.55 661.4 1061.75 662.4 1062.25 663.05 1062.45 664.5 1062.6 665.4 1062.85 667.7 1062.9328125 668.155859375 1063 669.125
M 1070.9 667.025
Q 1070.846484375 667.3431640625 1070.8 667.7 1070.65 668.8 1070.6 672.9 1070.5 678.2 1070.35 680.6 1069.8 690.5 1067.05 693 1066.95 693.1 1066.85 693.2
L 1066.8 693.15
Q 1063.9 690.9 1063.3 680.6 1063.2 678.2 1063.1 672.9 1063.070703125 670.498828125 1063 669.125"/>

<path id="Layer1_1_2_STROKES" stroke="url(#Gradient_20)" stroke-width="4" stroke-linejoin="round" stroke-linecap="round" fill="none" d="
M 1074.75 656.45
Q 1074.75 656.05 1075.05 655.8 1075.3 655.5 1075.75 655.5 1076.15 655.5 1076.45 655.8 1076.75 656.05 1076.75 656.45 1076.75 656.9 1076.45 657.2 1076.15 657.45 1075.75 657.45 1075.3 657.45 1075.05 657.2 1074.75 656.9 1074.75 656.45 Z"/>

<path id="Layer1_1_3_STROKES" stroke="url(#Gradient_21)" stroke-width="4" stroke-linejoin="round" stroke-linecap="round" fill="none" d="
M 1057.1 656.45
Q 1057.1 656.05 1057.4 655.8 1057.65 655.5 1058.1 655.5 1058.5 655.5 1058.8 655.8 1059.1 656.05 1059.1 656.45 1059.1 656.9 1058.8 657.2 1058.5 657.45 1058.1 657.45 1057.65 657.45 1057.4 657.2 1057.1 656.9 1057.1 656.45 Z"/>
</defs>

<g transform="matrix( 1, 0, 0, 1, 0,0) ">
<use xlink:href="#Layer1_0_FILL"/>

<use xlink:href="#Layer1_0_1_STROKES"/>

<use xlink:href="#Layer1_0_2_STROKES"/>

<use xlink:href="#Layer1_0_3_STROKES"/>

<use xlink:href="#Layer1_0_4_STROKES"/>

<use xlink:href="#Layer1_0_5_STROKES"/>

<use xlink:href="#Layer1_0_6_STROKES"/>

<use xlink:href="#Layer1_0_7_STROKES"/>

<use xlink:href="#Layer1_0_8_STROKES"/>

<use xlink:href="#Layer1_0_9_STROKES"/>

<use xlink:href="#Layer1_0_10_STROKES"/>

<use xlink:href="#Layer1_0_11_STROKES"/>

<use xlink:href="#Layer1_0_12_STROKES"/>

<use xlink:href="#Layer1_0_13_STROKES"/>

<use xlink:href="#Layer1_0_14_STROKES"/>

<use xlink:href="#Layer1_0_15_STROKES"/>

<use xlink:href="#Layer1_0_16_STROKES"/>

<use xlink:href="#Layer1_0_17_STROKES"/>

<use xlink:href="#Layer1_0_18_STROKES"/>
</g>

<g transform="matrix( 1, 0, 0, 1, -828.9,-624.4) ">
<use xlink:href="#Layer1_1_FILL"/>

<use xlink:href="#Layer1_1_1_STROKES"/>

<use xlink:href="#Layer1_1_2_STROKES"/>

<use xlink:href="#Layer1_1_3_STROKES"/>
</g>

<g transform="matrix( 1, 0, 0, 1, 0,0) ">
<use xlink:href="#Layer0_0_FILL"/>
</g>
</svg>
